PathFileType	4	(X/Y/Z)	/home/alexbeat/data/kuopio-gait-dataset/01/mocap/calib_static_markers.trc
DataRate	CameraRate	NumFrames	NumMarkers	Units	OrigDataRate	OrigDataStartFrame	OrigNumFrames
100.000000	100.000000	4	70	mm	100.000000	52	211
Frame#	Time	Pelvis1			Pelvis2			Pelvis3			Pelvis4			Torso1			Torso2			Torso3			Torso4			RFemur1			RFemur2			RFemur3			RFemur4			LFemur1			LFemur2			LFemur3			LFemur4			RTibia1			RTibia2			RTibia3			RTibia4			LTibia1			LTibia2			LTibia3			LTibia4			LFoot1			LFoot2			LFoot3			RFoot1			RFoot2			RFoot3			*30			*31			*32			*33			*34			*35			*36			*37			*38			Pelvis_RFemur_score			Pelvis_LFemur_score			RFemur_RTibia_score			RFemur_RTibia_sara			LFemur_LTibia_score			LFemur_LTibia_sara			RKnee			LKnee			RTibia_RFoot_score			LTibia_LFoot_score			USERMO0			USERMO1			USERMO2			USERMO3			USERMO4			USERMO5			USERMO6			USERMO7			USERMO8			USERMO9			USERMO10			USERMO11			USERMO12			USERMO13			USERMO14			USERMO15			USERMO16			USERMO17			USERMO18			USERMO19			USERMO20			
		X1	Y1	Z1	X2	Y2	Z2	X3	Y3	Z3	X4	Y4	Z4	X5	Y5	Z5	X6	Y6	Z6	X7	Y7	Z7	X8	Y8	Z8	X9	Y9	Z9	X10	Y10	Z10	X11	Y11	Z11	X12	Y12	Z12	X13	Y13	Z13	X14	Y14	Z14	X15	Y15	Z15	X16	Y16	Z16	X17	Y17	Z17	X18	Y18	Z18	X19	Y19	Z19	X20	Y20	Z20	X21	Y21	Z21	X22	Y22	Z22	X23	Y23	Z23	X24	Y24	Z24	X25	Y25	Z25	X26	Y26	Z26	X27	Y27	Z27	X28	Y28	Z28	X29	Y29	Z29	X30	Y30	Z30	X31	Y31	Z31	X32	Y32	Z32	X33	Y33	Z33	X34	Y34	Z34	X35	Y35	Z35	X36	Y36	Z36	X37	Y37	Z37	X38	Y38	Z38	X39	Y39	Z39	X40	Y40	Z40	X41	Y41	Z41	X42	Y42	Z42	X43	Y43	Z43	X44	Y44	Z44	X45	Y45	Z45	X46	Y46	Z46	X47	Y47	Z47	X48	Y48	Z48	X49	Y49	Z49	X50	Y50	Z50	X51	Y51	Z51	X52	Y52	Z52	X53	Y53	Z53	X54	Y54	Z54	X55	Y55	Z55	X56	Y56	Z56	X57	Y57	Z57	X58	Y58	Z58	X59	Y59	Z59	X60	Y60	Z60	X61	Y61	Z61	X62	Y62	Z62	X63	Y63	Z63	X64	Y64	Z64	X65	Y65	Z65	X66	Y66	Z66	X67	Y67	Z67	X68	Y68	Z68	X69	Y69	Z69	X70	Y70	Z70	

53	0.52	306.5682983398438	-344.0547180175781	1027.430786132812	225.8899078369141	-346.7246398925781	1030.220703125	227.8031768798828	-314.9015197753906	916.1024169921875	297.6097717285156	-313.4678955078125	916.84228515625	262.2704162597656	-500.5631408691406	1421.978881835938	91.36058044433594	-446.3168640136719	1439.95263671875	435.7553405761719	-439.7829895019531	1464.7265625	253.8086853027344	-368.3373107910156	1491.165161132812	91.12919616699219	-397.8554382324219	647.382568359375	101.4054336547852	-393.9715576171875	545.154052734375	89.76080322265625	-422.300537109375	592.3832397460938	85.13212585449219	-459.4994201660156	591.5614013671875	434.380859375	-421.3298645019531	668.8508911132812	433.6096496582031	-482.5910034179688	632.3041381835938	423.3958129882812	-422.143310546875	563.1781616210938	434.5365295410156	-440.6211242675781	634.1685180664062	93.07707214355469	-377.1296691894531	363.6155395507812	97.14093780517578	-396.2457275390625	419.1795654296875	91.66745758056641	-391.8888549804688	317.6542358398438	109.6012649536133	-338.7200927734375	366.4833374023438	426.4273986816406	-363.216064453125	372.5252990722656	432.1291809082031	-404.8712463378906	350.4126586914062	424.0276489257812	-412.6020812988281	285.2710571289062	424.7376708984375	-429.8365478515625	394.6585998535156	335.287841796875	-320.4113159179688	28.13594627380371	377.7721557617188	-555.2955932617188	23.28206443786621	421.9531555175781	-505.9233703613281	23.17986297607422	179.6100006103516	-331.457275390625	26.46237754821777	118.2095260620117	-561.9850463867188	22.28283882141113	76.26023864746094	-505.9566040039062	21.02493476867676	1498.118286132812	1841.735717773438	614.97265625	1584.31298828125	1909.35400390625	704.5462036132812	nan	nan	nan	1628.111938476562	1821.20556640625	658.327880859375	nan	nan	nan	nan	nan	nan	nan	nan	nan	nan	nan	nan	nan	nan	nan	139.9944763183594	-452.7725219726562	904.0001831054688	375.658447265625	-456.8960876464844	892.2459106445312	145.3717803955078	-417.1073608398438	461.2199096679688	244.1216888427734	-431.8385925292969	466.8277893066406	364.3003845214844	-432.6328125	458.484619140625	264.4213256835938	-436.6026306152344	461.3853454589844	145.3719940185547	-417.1069946289062	461.2200012207031	364.2999877929688	-432.6329956054688	458.4849853515625	222.1464691162109	-357.5084533691406	8.52308464050293	373.1917724609375	-337.4746398925781	18.5920238494873	-0.8912051320075989	1.482497215270996	-0.7359246015548706	0.4305469393730164	-0.4420314729213715	0.6214454770088196	0.1000000014901161	0.1000000014901161	0.1000000014901161	-0.000589404720813036	0.02930197492241859	-1.385842680931091	0.3783377110958099	-0.4605434536933899	0.02486595883965492	0.1000000014901161	0.1000000014901161	0.1000000014901161	-1.074671149253845	1.399050116539001	-0.6344895362854004	0.4275576174259186	-0.3935566246509552	0.3360575735569	0.1000000014901161	0.1000000014901161	0.1000000014901161	-0.07630155235528946	2.506247997283936	-1.90037727355957	0.2533922791481018	-0.3352062702178955	0.9913585186004639	0.1000000014901161	0.1000000014901161	0.1000000014901161	2.463037729263306	-0.2037057876586914	-2.237673759460449	0.09418227523565292	-0.4047414660453796	0.5949565768241882	0.1000000014901161	0.1000000014901161	0.1000000014901161	-1.88241720199585	2.469509363174438	-0.02837882004678249	0.1246932595968246	-0.4664663374423981	0.02325671911239624	0.1000000014901161	0.1000000014901161	0.1000000014901161	2.464279413223267	-0.3362321555614471	2.31983470916748	0.09398991614580154	-0.3883714079856873	0.3668135404586792	0.1000000014901161	0.1000000014901161	0.1000000014901161	
54	0.53	306.5590209960938	-344.0993347167969	1027.441162109375	225.8986206054688	-346.7402648925781	1030.23291015625	227.7828521728516	-314.9255981445312	916.1134033203125	297.5320434570312	-313.5566711425781	916.8309326171875	262.35693359375	-500.8636474609375	1422.129760742188	91.35663604736328	-446.352294921875	1439.96142578125	435.751220703125	-439.8276977539062	1464.743286132812	253.7966766357422	-368.3638916015625	1491.162231445312	91.10820770263672	-397.864501953125	647.3726806640625	101.3850250244141	-393.9834289550781	545.1657104492188	89.73630523681641	-422.3326721191406	592.359619140625	85.11259460449219	-459.5093078613281	591.5426025390625	434.3538513183594	-421.3717956542969	668.8530883789062	433.6231384277344	-482.61669921875	632.3167114257812	423.3975524902344	-422.1825561523438	563.19775390625	434.5028076171875	-440.6243896484375	634.1663818359375	93.08786773681641	-377.1123657226562	363.5602111816406	97.10403442382812	-396.2757263183594	419.181884765625	91.59056854248047	-391.9353942871094	317.6353149414062	109.5687484741211	-338.7445068359375	366.4813537597656	426.4239196777344	-363.2318420410156	372.5227355957031	432.1185913085938	-404.8917846679688	350.4405822753906	424.0114135742188	-412.622802734375	285.2904968261719	424.7257385253906	-429.8462829589844	394.6838073730469	335.2684020996094	-320.4108581542969	28.14562225341797	377.7599487304688	-555.3004150390625	23.28278160095215	421.9239501953125	-505.9495849609375	23.19314575195312	179.5994720458984	-331.4647521972656	26.47626304626465	118.1960678100586	-561.9691772460938	22.2661075592041	76.24256134033203	-505.9666748046875	21.01206588745117	1498.137329101562	1841.720825195312	615.0389404296875	1584.355834960938	1909.36181640625	704.53564453125	1627.125366210938	1802.579956054688	662.849853515625	1628.10107421875	1821.23095703125	658.3555297851562	nan	nan	nan	nan	nan	nan	nan	nan	nan	nan	nan	nan	nan	nan	nan	139.9172821044922	-452.7939758300781	904.0407104492188	375.5564880371094	-456.9864501953125	892.2354125976562	145.3530426025391	-417.1266784667969	461.2008056640625	244.1007232666016	-431.877197265625	466.7972412109375	364.3109436035156	-432.657470703125	458.4926452636719	264.4323120117188	-436.6461486816406	461.3824157714844	145.3529968261719	-417.1270141601562	461.2009887695312	364.3110046386719	-432.6570129394531	458.4930114746094	222.0775604248047	-357.5511169433594	8.502306938171387	373.1754150390625	-337.513916015625	18.60329246520996	-0.8914394378662109	1.481945633888245	-0.7356228828430176	0.4305366575717926	-0.4420595169067383	0.6214532256126404	0.1000000014901161	0.1000000014901161	0.1000000014901161	-0.0003882540040649474	0.02918447181582451	-1.385871648788452	0.3783174753189087	-0.4605536460876465	0.02487385086715221	0.1000000014901161	0.1000000014901161	0.1000000014901161	-1.074734926223755	1.399162769317627	-0.6347206830978394	0.4275477230548859	-0.3935760855674744	0.3360733687877655	0.1000000014901161	0.1000000014901161	0.1000000014901161	-0.0761013999581337	2.506551504135132	-1.901081800460815	0.2533731460571289	-0.3352391421794891	0.9913702607154846	0.1000000014901161	0.1000000014901161	0.1000000014901161	2.463139533996582	-0.2035981267690659	-2.237679004669189	0.09416088461875916	-0.4047573208808899	0.5949477553367615	0.1000000014901161	0.1000000014901161	0.1000000014901161	-1.882321357727051	2.469437122344971	-0.02828493341803551	0.124679371714592	-0.466466873884201	0.02325147949159145	0.1000000014901161	0.1000000014901161	0.1000000014901161	2.464268207550049	-0.3366762697696686	2.319301843643188	0.0939512774348259	-0.388390839099884	0.3667967915534973	0.1000000014901161	0.1000000014901161	0.1000000014901161	
55	0.54	306.5293884277344	-344.1046752929688	1027.452758789062	225.8664398193359	-346.7977294921875	1030.248901367188	227.7780914306641	-314.9613647460938	916.1286010742188	297.5942993164062	-313.3758544921875	916.9453735351562	262.2841796875	-500.6006774902344	1421.943969726562	91.34505462646484	-446.3987426757812	1439.97412109375	435.7357788085938	-439.8600769042969	1464.729858398438	253.79248046875	-368.3921203613281	1491.167114257812	91.08444976806641	-397.8795471191406	647.3889770507812	101.3663940429688	-394.0148010253906	545.175537109375	89.74691009521484	-422.3740844726562	592.3778076171875	85.13232421875	-459.5260925292969	591.536376953125	434.345947265625	-421.3785095214844	668.8746948242188	433.6156921386719	-482.64453125	632.3430786132812	423.3775939941406	-422.2002563476562	563.2171630859375	434.52197265625	-440.6571044921875	634.196533203125	93.06757354736328	-377.1163330078125	363.5615844726562	97.10197448730469	-396.286865234375	419.1807556152344	91.57025909423828	-391.9460754394531	317.6630859375	109.5659255981445	-338.7460632324219	366.482177734375	426.4228515625	-363.2348022460938	372.5418395996094	432.1327209472656	-404.8891906738281	350.4600524902344	424.0106506347656	-412.6202697753906	285.308349609375	424.7069702148438	-429.8656616210938	394.7062377929688	335.2615966796875	-320.4261169433594	28.15688133239746	377.76025390625	-555.2978515625	23.28875541687012	421.9280395507812	-505.9569702148438	23.19781684875488	179.6056823730469	-331.481689453125	26.48842811584473	118.2012710571289	-561.9788208007812	22.28110885620117	76.23471069335938	-505.9769592285156	21.00504684448242	1498.171142578125	1841.720947265625	615.0875854492188	1584.334716796875	1909.340942382812	704.5333251953125	nan	nan	nan	1628.109985351562	1821.219604492188	658.3125	-339.0601501464844	-913.0484008789062	1654.525512695312	nan	nan	nan	nan	nan	nan	nan	nan	nan	nan	nan	nan	140.0376892089844	-452.8379516601562	903.9534301757812	375.7098083496094	-456.8480224609375	892.2559204101562	145.3597106933594	-417.1324157714844	461.2073364257812	244.1111755371094	-431.8591918945312	466.7990112304688	364.2853393554688	-432.6762390136719	458.5137329101562	264.4064636230469	-436.6575927734375	461.4045715332031	145.3600006103516	-417.1319885253906	461.2070007324219	364.2850036621094	-432.6759948730469	458.5140075683594	222.041015625	-357.5773010253906	8.508996963500977	373.1983642578125	-337.4972229003906	18.61854362487793	-0.891577422618866	1.482058644294739	-0.7355996966362	0.4305321276187897	-0.4420809745788574	0.6214778423309326	0.1000000014901161	0.1000000014901161	0.1000000014901161	-0.0004032029828522354	0.02922969125211239	-1.385826826095581	0.3783166408538818	-0.4605603218078613	0.0248811524361372	0.1000000014901161	0.1000000014901161	0.1000000014901161	-1.074482679367065	1.399179697036743	-0.6348206996917725	0.4275495111942291	-0.3935789465904236	0.3360941708087921	0.1000000014901161	0.1000000014901161	0.1000000014901161	-0.0772656723856926	2.506133794784546	-1.898845314979553	0.2533650100231171	-0.3352552056312561	0.9913948178291321	0.1000000014901161	0.1000000014901161	0.1000000014901161	2.462945699691772	-0.2028716802597046	-2.237307548522949	0.09414957463741302	-0.4047819972038269	0.5949568152427673	0.1000000014901161	0.1000000014901161	0.1000000014901161	-1.882140040397644	2.469287633895874	-0.0287611149251461	0.1246805638074875	-0.4664791822433472	0.02325819432735443	0.1000000014901161	0.1000000014901161	0.1000000014901161	2.464385032653809	-0.3368203639984131	2.318964004516602	0.09393838047981262	-0.3883971869945526	0.3668052852153778	0.1000000014901161	0.1000000014901161	0.1000000014901161	
56	0.55	306.5344543457031	-344.134521484375	1027.452880859375	225.8673095703125	-346.8150024414062	1030.245727539062	227.7727508544922	-314.9759826660156	916.1295166015625	297.5639953613281	-313.3961486816406	916.9434204101562	262.363525390625	-500.8857116699219	1422.098999023438	91.35903167724609	-446.422607421875	1439.961181640625	435.7504577636719	-439.9045104980469	1464.704711914062	253.7981109619141	-368.4091186523438	1491.157836914062	91.08329010009766	-397.8953552246094	647.3873291015625	101.3673095703125	-394.0124816894531	545.1781616210938	89.7283935546875	-422.3577880859375	592.367431640625	85.11573791503906	-459.5433959960938	591.545166015625	434.3362426757812	-421.42431640625	668.8645629882812	433.6183166503906	-482.6623229980469	632.3458862304688	423.35791015625	-422.1822204589844	563.1976928710938	434.5177307128906	-440.6850280761719	634.202392578125	93.05598449707031	-377.1347961425781	363.5895080566406	97.09957122802734	-396.2900390625	419.1835327148438	91.48171997070312	-391.9800415039062	317.6874694824219	109.5691070556641	-338.7437744140625	366.4836120605469	426.4196166992188	-363.2250061035156	372.5484313964844	432.09912109375	-404.9019470214844	350.4632873535156	424.0072631835938	-412.6168823242188	285.2968444824219	424.70703125	-429.865966796875	394.6884155273438	335.269287109375	-320.4153442382812	28.15253829956055	377.7822265625	-555.306640625	23.2910099029541	421.9329528808594	-505.9536437988281	23.19620704650879	179.5997009277344	-331.4505310058594	26.4842414855957	118.2020416259766	-561.9775390625	22.27482604980469	76.24735260009766	-505.966064453125	21.00637054443359	1498.27587890625	1841.708374023438	615.0947265625	1584.330078125	1909.331176757812	704.5056762695312	1627.271484375	1802.684204101562	662.8223876953125	1628.120971679688	1821.206298828125	658.262451171875	-339.1080017089844	-913.1084594726562	1654.532104492188	-3557.312744140625	-673.3855590820312	994.5353393554688	-3552.6650390625	-669.478515625	971.5098266601562	nan	nan	nan	nan	nan	nan	140.0166320800781	-452.8637084960938	903.9567260742188	375.7025451660156	-456.9228515625	892.2408447265625	145.3686676025391	-417.146484375	461.1980895996094	244.1155853271484	-431.9188232421875	466.7498474121094	364.2696838378906	-432.6665344238281	458.5116271972656	264.3912658691406	-436.6566772460938	461.4064331054688	145.3690032958984	-417.14599609375	461.197998046875	364.2699890136719	-432.6669921875	458.5119934082031	221.8809204101562	-357.6562805175781	8.456365585327148	373.1963806152344	-337.47998046875	18.61687660217285	-0.8914752006530762	1.482107281684875	-0.735152542591095	0.4305242300033569	-0.4420984089374542	0.6214724779129028	0.1000000014901161	0.1000000014901161	0.1000000014901161	-0.0004747273924294859	0.02924712002277374	-1.38580048084259	0.3783281743526459	-0.4605585634708405	0.02487991936504841	0.1000000014901161	0.1000000014901161	0.1000000014901161	-1.074396014213562	1.399222254753113	-0.6347613334655762	0.4275395274162292	-0.393577516078949	0.3360901772975922	0.1000000014901161	0.1000000014901161	0.1000000014901161	-0.0773015022277832	2.50631308555603	-1.898873567581177	0.2533597946166992	-0.3352757692337036	0.9913950562477112	0.1000000014901161	0.1000000014901161	0.1000000014901161	2.463094711303711	-0.2030684649944305	-2.237463712692261	0.09414392709732056	-0.4047862887382507	0.5949578881263733	0.1000000014901161	0.1000000014901161	0.1000000014901161	-1.882276892662048	2.4692702293396	-0.02860668860375881	0.1246830374002457	-0.4664647579193115	0.02325514703989029	0.1000000014901161	0.1000000014901161	0.1000000014901161	2.464666604995728	-0.337501049041748	2.317497491836548	0.09390504658222198	-0.3884077966213226	0.3668256402015686	0.1000000014901161	0.1000000014901161	0.1000000014901161	
